<svg width="27" height="36" viewBox="0 0 27 36" fill="none" xmlns="http://www.w3.org/2000/svg">
<path d="M22.252 29.1999C22.044 29.7119 22.124 31.728 22.348 32.016C22.684 32.432 23.308 32.3519 23.42 31.8879C23.772 30.4639 22.716 28.0319 22.252 29.1999Z" fill="#F3F5FF"/>
<path d="M4.84406 9.43992C4.74806 10.1439 4.79609 11.9679 4.82809 13.0559C4.84409 13.3919 5.10007 13.6479 5.42007 13.6799C6.34809 13.7599 6.54009 11.9999 5.94809 9.1039C5.80409 8.3839 4.97206 8.62392 4.84406 9.43992Z" fill="#F3F5FF"/>
<path d="M8.55607 7.9519C9.93207 7.9519 10.7001 7.74395 10.7001 7.35995C10.7001 6.86395 9.54807 6.73592 7.82007 7.00792C5.96407 7.32792 6.46007 7.9519 8.55607 7.9519Z" fill="#F3F5FF"/>
<path d="M4.81202 0.8639C4.42802 1.0239 4.54002 5.98387 4.92402 6.19187C5.98003 6.75187 6.44403 6.12792 6.31603 4.39992C6.01203 0.799915 5.86803 0.4319 4.81202 0.8639Z" fill="#F3F5FF"/>
<path d="M1.64403 6.97595C0.572033 7.10395 0.300049 7.21589 0.300049 7.55189C0.300049 8.07989 3.50005 8.20789 4.25205 7.71189C5.14805 7.11989 3.75603 6.71995 1.64403 6.97595Z" fill="#F3F5FF"/>
<path d="M22.4281 27.1199C22.7161 27.0879 22.9401 26.8639 22.9401 26.5759C23.0201 24.6879 23.0841 23.4399 21.9161 23.9039C21.6921 23.9999 21.6441 25.1839 21.8201 26.4319C21.9321 27.1519 21.9481 27.1679 22.4281 27.1199Z" fill="#F3F5FF"/>
<path d="M23.692 27.808C23.196 28.016 23.244 28.3998 23.788 28.5118C24.268 28.6238 26.156 28.352 26.524 28.128C27.196 27.696 24.652 27.408 23.692 27.808Z" fill="#F3F5FF"/>
<path d="M21.5 27.7919C20.988 27.5999 20.876 27.5999 20.06 27.8399C18.828 28.2079 19.34 28.7039 20.764 28.5119C21.756 28.3839 22.108 28.0319 21.5 27.7919Z" fill="#F3F5FF"/>
<path d="M19.6441 20.2559C20.0441 19.5839 19.9161 18.7359 19.3561 18.2079C17.9641 16.8959 16.6201 14.6559 15.8361 12.3359C15.3881 11.0399 14.2041 5.83993 14.2041 5.18393C14.2041 4.35193 13.2921 3.9359 12.7161 4.5119C12.5881 4.6399 12.4281 5.19994 12.3801 5.75994C12.0761 8.57594 10.4121 14.9599 9.46809 16.8799C9.00409 17.8239 8.04409 18.7359 7.03609 19.1839C6.17209 19.5679 6.17209 19.6319 7.24409 20.5599C9.37209 22.4159 10.9401 26.0799 12.0441 31.8079C13.0361 36.9439 14.7801 35.2799 14.5881 34.2399C14.1881 32.2239 16.5401 25.4559 19.2281 20.9439L19.6441 20.2559ZM17.5961 19.5999C16.0441 21.5839 14.3641 24.6879 13.5641 27.0719L13.1961 28.1919L12.9881 27.1519C11.5321 20.0959 8.57209 19.7439 8.25209 19.4399C8.60409 19.0719 11.7881 17.0719 13.2601 12.4639C13.7081 11.0719 13.6281 11.0719 14.0601 12.3839C14.8761 14.8639 16.0121 16.8799 17.3241 18.2239L18.0761 18.9919L17.5961 19.5999Z" fill="#F3F5FF"/>
</svg>
