<svg width="22" height="22" viewBox="0 0 22 22" fill="none" xmlns="http://www.w3.org/2000/svg">
<path d="M7 20.4414C5.61667 20.4414 4.43767 19.9541 3.463 18.9794C2.48767 18.0041 2 16.8247 2 15.4414V6.44141C1.45 6.44141 0.979333 6.24541 0.588 5.85341C0.196 5.46207 0 4.99141 0 4.44141V2.44141C0 1.89141 0.196 1.42041 0.588 1.02841C0.979333 0.637073 1.45 0.441406 2 0.441406H12C12.55 0.441406 13.021 0.637073 13.413 1.02841C13.8043 1.42041 14 1.89141 14 2.44141V4.44141C14 4.99141 13.8043 5.46207 13.413 5.85341C13.021 6.24541 12.55 6.44141 12 6.44141V9.46641C11.3 9.91641 10.7043 10.4787 10.213 11.1534C9.721 11.8287 9.375 12.5914 9.175 13.4414H8C7.71667 13.4414 7.47933 13.3454 7.288 13.1534C7.096 12.9621 7 12.7247 7 12.4414C7 12.1581 7.096 11.9204 7.288 11.7284C7.47933 11.5371 7.71667 11.4414 8 11.4414H10V10.4414H8C7.71667 10.4414 7.47933 10.3454 7.288 10.1534C7.096 9.96207 7 9.72474 7 9.44141C7 9.15807 7.096 8.92041 7.288 8.72841C7.47933 8.53707 7.71667 8.44141 8 8.44141H10V6.44141H4V15.4414C4 16.2747 4.29167 16.9831 4.875 17.5664C5.45833 18.1497 6.16667 18.4414 7 18.4414C7.5 18.4414 7.95833 18.3331 8.375 18.1164C8.79167 17.8997 9.14167 17.5997 9.425 17.2164C9.55833 17.5497 9.70833 17.8664 9.875 18.1664C10.0417 18.4664 10.2417 18.7581 10.475 19.0414C10.025 19.4747 9.50433 19.8164 8.913 20.0664C8.321 20.3164 7.68333 20.4414 7 20.4414ZM9.175 16.4414H8C7.71667 16.4414 7.47933 16.3454 7.288 16.1534C7.096 15.9621 7 15.7247 7 15.4414C7 15.1581 7.096 14.9207 7.288 14.7294C7.47933 14.5374 7.71667 14.4414 8 14.4414H9.025C8.99167 14.7747 8.98767 15.1081 9.013 15.4414C9.03767 15.7747 9.09167 16.1081 9.175 16.4414ZM2 4.44141H12V2.44141H2V4.44141ZM15.5 17.4414C16.2 17.4414 16.7917 17.1997 17.275 16.7164C17.7583 16.2331 18 15.6414 18 14.9414C18 14.2414 17.7583 13.6497 17.275 13.1664C16.7917 12.6831 16.2 12.4414 15.5 12.4414C14.8 12.4414 14.2083 12.6831 13.725 13.1664C13.2417 13.6497 13 14.2414 13 14.9414C13 15.6414 13.2417 16.2331 13.725 16.7164C14.2083 17.1997 14.8 17.4414 15.5 17.4414ZM15.5 19.4414C14.25 19.4414 13.1873 19.0041 12.312 18.1294C11.4373 17.2541 11 16.1914 11 14.9414C11 13.6914 11.4373 12.6287 12.312 11.7534C13.1873 10.8787 14.25 10.4414 15.5 10.4414C16.75 10.4414 17.8127 10.8787 18.688 11.7534C19.5627 12.6287 20 13.6914 20 14.9414C20 15.3747 19.9417 15.7914 19.825 16.1914C19.7083 16.5914 19.5333 16.9747 19.3 17.3414L21.3 19.3414C21.4833 19.5247 21.575 19.7581 21.575 20.0414C21.575 20.3247 21.4833 20.5581 21.3 20.7414C21.1167 20.9247 20.8833 21.0164 20.6 21.0164C20.3167 21.0164 20.0833 20.9247 19.9 20.7414L17.9 18.7414C17.5333 18.9747 17.15 19.1497 16.75 19.2664C16.35 19.3831 15.9333 19.4414 15.5 19.4414Z" fill="white" fill-opacity="0.5"/>
</svg>
