<svg width="9" height="20" viewBox="0 0 9 20" fill="none" xmlns="http://www.w3.org/2000/svg">
<path d="M8.08396 10.3159C8.31729 9.9239 8.24263 9.42924 7.91596 9.12123C7.10396 8.3559 6.31996 7.04924 5.86263 5.6959C5.60129 4.9399 4.91062 1.9066 4.91062 1.52393C4.91062 1.0386 4.37863 0.795911 4.04263 1.13191C3.96796 1.20658 3.87463 1.53327 3.84663 1.85994C3.66929 3.50261 2.69863 7.22657 2.14796 8.34657C1.87729 8.89723 1.31729 9.42924 0.729292 9.69057C0.225292 9.91457 0.225292 9.9519 0.850626 10.4932C2.09196 11.5759 3.00663 13.7132 3.65063 17.0546C4.22929 20.0506 5.24663 19.0799 5.13463 18.4732C4.90129 17.2972 6.27329 13.3492 7.84129 10.7172L8.08396 10.3159ZM6.88929 9.93324C5.98396 11.0906 5.00396 12.9012 4.53729 14.2919L4.32263 14.9452L4.20129 14.3386C3.35196 10.2226 1.62529 10.0172 1.43863 9.8399C1.64396 9.62523 3.50129 8.45857 4.35996 5.77057C4.62129 4.95857 4.57463 4.95857 4.82663 5.7239C5.30263 7.17057 5.96529 8.34657 6.73063 9.13057L7.16929 9.57857L6.88929 9.93324Z" fill="#F3F5FF"/>
</svg>
