<svg width="21" height="21" viewBox="0 0 21 21" fill="none" xmlns="http://www.w3.org/2000/svg">
<path d="M19.0001 12.4414H14.5001C14.1024 12.4418 13.7211 12.6 13.4399 12.8812C13.1586 13.1624 13.0005 13.5437 13.0001 13.9414V15.4414H8.81058L5.50008 12.1309V7.94141H7.00008C7.39779 7.94101 7.77909 7.78285 8.06031 7.50163C8.34152 7.22041 8.49969 6.83911 8.50008 6.44141V1.94141C8.49969 1.5437 8.34152 1.1624 8.06031 0.881185C7.77909 0.599966 7.39779 0.441803 7.00008 0.441406H2.50008C2.10238 0.441803 1.72108 0.599966 1.43986 0.881185C1.15864 1.1624 1.00048 1.5437 1.00008 1.94141V6.44141C1.00048 6.83911 1.15864 7.22041 1.43986 7.50163C1.72108 7.78285 2.10238 7.94101 2.50008 7.94141H4.00008V12.1309L0.469834 15.6612C0.329231 15.8018 0.250244 15.9925 0.250244 16.1914C0.250244 16.3903 0.329231 16.581 0.469834 16.7217L4.21983 20.4717C4.36048 20.6123 4.55121 20.6912 4.75008 20.6912C4.94896 20.6912 5.13969 20.6123 5.28033 20.4717L8.81058 16.9414H13.0001V18.4414C13.0005 18.8391 13.1586 19.2204 13.4399 19.5016C13.7211 19.7828 14.1024 19.941 14.5001 19.9414H19.0001C19.3978 19.941 19.7791 19.7828 20.0603 19.5016C20.3415 19.2204 20.4997 18.8391 20.5001 18.4414V13.9414C20.4997 13.5437 20.3415 13.1624 20.0603 12.8812C19.7791 12.6 19.3978 12.4418 19.0001 12.4414ZM2.50008 1.94141H7.00008V6.44141H2.50008V1.94141ZM4.75008 18.8809L2.06058 16.1914L4.75008 13.5019L7.43958 16.1914L4.75008 18.8809ZM14.5001 18.4414V13.9414H19.0001V18.4414H14.5001Z" fill="white" fill-opacity="0.5"/>
</svg>
