<svg width="21" height="20" viewBox="0 0 21 20" fill="none" xmlns="http://www.w3.org/2000/svg">
<path d="M8 9.44141C7.65 10.0314 7.36 10.6814 7.19 11.3714C4.5 11.6014 1.9 12.8614 1.9 13.4414V14.5414H7.2C7.37 15.2214 7.65 15.8614 8 16.4414H0V13.4414C0 10.7814 5.33 9.44141 8 9.44141ZM8 0.441406C9.06086 0.441406 10.0783 0.862833 10.8284 1.61298C11.5786 2.36312 12 3.38054 12 4.44141C12 5.35141 11.69 6.19141 11.18 6.87141C10.32 7.19141 9.55 7.70141 8.91 8.34141L8 8.44141C6.93913 8.44141 5.92172 8.01998 5.17157 7.26983C4.42143 6.51969 4 5.50227 4 4.44141C4 3.38054 4.42143 2.36312 5.17157 1.61298C5.92172 0.862833 6.93913 0.441406 8 0.441406ZM8 2.34141C7.44304 2.34141 6.9089 2.56266 6.51507 2.95648C6.12125 3.35031 5.9 3.88445 5.9 4.44141C5.9 4.99836 6.12125 5.5325 6.51507 5.92633C6.9089 6.32016 7.44304 6.54141 8 6.54141C8.55695 6.54141 9.0911 6.32016 9.48492 5.92633C9.87875 5.5325 10.1 4.99836 10.1 4.44141C10.1 3.88445 9.87875 3.35031 9.48492 2.95648C9.0911 2.56266 8.55695 2.34141 8 2.34141ZM13.5 8.44141C16 8.44141 18 10.4414 18 12.9414C18 13.8214 17.75 14.6514 17.31 15.3414L20.39 18.4414L19 19.8314L15.88 16.7614C15.19 17.1914 14.37 17.4414 13.5 17.4414C11 17.4414 9 15.4414 9 12.9414C9 10.4414 11 8.44141 13.5 8.44141ZM13.5 10.4414C12.837 10.4414 12.2011 10.7048 11.7322 11.1736C11.2634 11.6425 11 12.2784 11 12.9414C11 13.6044 11.2634 14.2403 11.7322 14.7092C12.2011 15.178 12.837 15.4414 13.5 15.4414C14.163 15.4414 14.7989 15.178 15.2678 14.7092C15.7366 14.2403 16 13.6044 16 12.9414C16 12.2784 15.7366 11.6425 15.2678 11.1736C14.7989 10.7048 14.163 10.4414 13.5 10.4414Z" fill="white" fill-opacity="0.5"/>
</svg>
